<svg data-name="Слой 1" xmlns="http://www.w3.org/2000/svg" viewBox="0 0 1000 1000">
  <path
    d="M500 0C223.86 0 0 223.86 0 500s223.86 500 500 500 500-223.86 500-500S776.14 0 500 0ZM256.34 347.86A23.86 23.86 0 0 1 280.2 324h439.6a23.86 23.86 0 0 1 23.86 23.86v32.23l-24.89 10.05-212.27 85.67a17.3 17.3 0 0 1-13 0l-212.27-85.67-24.89-10.05Zm487.32 304.28A23.86 23.86 0 0 1 719.8 676H280.2a23.86 23.86 0 0 1-23.86-23.86V423.23l222.19 89.67a57.1 57.1 0 0 0 42.94 0l222.19-89.67Z"
    style="fill:#5282ff" />
</svg>