<svg id="a0530a0e-6a2b-49f8-b8b3-cd087bddedf5" data-name="Слой 1" xmlns="http://www.w3.org/2000/svg" viewBox="0 0 1000 1000"><defs><style>.e897dd08-2371-4231-a52b-44bd94f1c8d2{fill:#5282ff;}</style></defs><path class="e897dd08-2371-4231-a52b-44bd94f1c8d2" d="M630.37,364.53v89.72H370.63V364.53a129.87,129.87,0,1,1,259.74,0Z"/><path class="e897dd08-2371-4231-a52b-44bd94f1c8d2" d="M500,0C223.86,0,0,223.86,0,500s223.86,500,500,500,500-223.86,500-500S776.14,0,500,0ZM750,731.02a30.506,30.506,0,0,1-30.5,30.5h-438a30.506,30.506,0,0,1-30.5-30.5V484.75a30.506,30.506,0,0,1,30.5-30.5h30.95V364.53c0-103.86,84.19-188.05,188.05-188.05s188.05,84.19,188.05,188.05v89.72H719.5a30.506,30.506,0,0,1,30.5,30.5Z"/></svg>