<svg data-name="Слой 1" xmlns="http://www.w3.org/2000/svg" viewBox="0 0 975.98 604.98">
  <path
    d="M-12.01-197.51ZM674.71 531.63a587.97 587.97 0 0 1-186.72 30.23c-189.3 0-357.72-89.37-465.39-228.19Q10.8 318.47 0 302.48q10.8-15.95 22.6-31.17A590.82 590.82 0 0 1 240.57 97.49l27.27 27.27A554.43 554.43 0 0 0 44.16 302.49c100.7 135.52 262.01 223.33 443.83 223.33a552.66 552.66 0 0 0 157.99-22.92ZM975.98 302.48q-10.79 15.97-22.6 31.19a590.92 590.92 0 0 1-217.97 173.82l-27.27-27.27a554.43 554.43 0 0 0 223.68-177.73C831.12 166.97 669.81 79.16 487.99 79.16A552.66 552.66 0 0 0 330 102.08l-28.73-28.73a587.97 587.97 0 0 1 186.72-30.23c189.3 0 357.72 89.36 465.39 228.19q11.8 15.2 22.6 31.17Z"
    fill="#2b395b" />
  <path
    d="M572 428.92a151.02 151.02 0 0 1-209.11-209.11ZM640.15 302.67a150.2 150.2 0 0 1-25.53 84.03l-209.5-209.5a151.01 151.01 0 0 1 235.03 125.47ZM687.82 527.06l-28.36-28.36-77.17-77.17L185.5 24.74 210.24 0l77.91 77.91 28.37 28.37 78.4 78.4L607.14 396.9l88.55 88.55 94.79 94.79-24.74 24.74Z"
    fill="#2b395b" />
  <path fill="#2b395b"
    d="m790.48 580.24-24.74 24.74-77.92-77.92-28.36-28.36-77.17-77.17L185.5 24.74 210.24 0l77.91 77.91 28.37 28.37 78.4 78.4L607.14 396.9l88.55 88.55 94.79 94.79z" />
</svg>