<svg xmlns="http://www.w3.org/2000/svg" viewBox="0 0 975.98 518.73">
  <circle cx="489.15" cy="259.54" r="151" fill="#2b395b" />
  <path
    d="M953.38 228.19C845.71 89.36 677.29 0 487.99 0S130.27 89.36 22.6 228.19Q10.8 243.39 0 259.36q10.78 15.98 22.6 31.18c107.67 138.83 276.09 228.19 465.39 228.19s357.72-89.36 465.39-228.19q11.8-15.2 22.6-31.18-10.8-15.96-22.6-31.17ZM487.99 482.7c-181.82 0-343.13-87.81-443.83-223.33C144.86 123.84 306.17 36.03 487.99 36.03s343.13 87.81 443.83 223.34C831.12 394.89 669.81 482.7 487.99 482.7Z"
    fill="#2b395b" />
</svg>